{
  "accessors": [
    {
      "bufferView": 2,
      "componentType": 5126,
      "count": 16896,
      "max": [
        2.3318769931793213,
        2.3318769931793213,
        0.5203930139541626
      ],
      "min": [
        -2.3318769931793213,
        -2.3318769931793213,
        0.34509798884391785
      ],
      "type": "VEC3"
    },
    {
      "bufferView": 2,
      "byteOffset": 202752,
      "componentType": 5126,
      "count": 16896,
      "max": [
        1.0,
        1.0,
        0.9995797276496887
      ],
      "min": [
        -1.0,
        -1.0,
        -0.9995389580726624
      ],
      "type": "VEC3"
    },
    {
      "bufferView": 1,
      "componentType": 5126,
      "count": 16896,
      "max": [
        0.0,
        0.0
      ],
      "min": [
        0.0,
        0.0
      ],
      "type": "VEC2"
    },
    {
      "bufferView": 0,
      "componentType": 5125,
      "count": 98304,
      "type": "SCALAR"
    },
    {
      "bufferView": 2,
      "byteOffset": 405504,
      "componentType": 5126,
      "count": 65532,
      "max": [
        2.2911200523376465,
        2.3068130016326904,
        2.2094340324401855
      ],
      "min": [
        -2.3208398818969727,
        -2.2868800163269043,
        0.7262790203094482
      ],
      "type": "VEC3"
    },
    {
      "bufferView": 2,
      "byteOffset": 1191888,
      "componentType": 5126,
      "count": 65532,
      "max": [
        0.9999985694885254,
        1.0,
        0.9664839506149292
      ],
      "min": [
        -0.9999984502792358,
        -1.0,
        -0.9937140345573425
      ],
      "type": "VEC3"
    },
    {
      "bufferView": 1,
      "byteOffset": 135168,
      "componentType": 5126,
      "count": 65532,
      "max": [
        0.875,
        1.0
      ],
      "min": [
        0.125,
        0.0
      ],
      "type": "VEC2"
    },
    {
      "bufferView": 0,
      "byteOffset": 393216,
      "componentType": 5125,
      "count": 369735,
      "type": "SCALAR"
    },
    {
      "bufferView": 2,
      "byteOffset": 1978272,
      "componentType": 5126,
      "count": 19841,
      "max": [
        0.09578099846839905,
        -0.29269200563430786,
        2.2094318866729736
      ],
      "min": [
        -2.240123987197876,
        -2.3068089485168457,
        0.726282000541687
      ],
      "type": "VEC3"
    },
    {
      "bufferView": 2,
      "byteOffset": 2216364,
      "componentType": 5126,
      "count": 19841,
      "max": [
        0.9999655485153198,
        0.9999861717224121,
        0.9664536714553833
      ],
      "min": [
        -0.9999984502792358,
        -0.9999957084655762,
        -0.99370938539505
      ],
      "type": "VEC3"
    },
    {
      "bufferView": 1,
      "byteOffset": 659424,
      "componentType": 5126,
      "count": 19841,
      "max": [
        0.875,
        1.0
      ],
      "min": [
        0.125,
        0.0
      ],
      "type": "VEC2"
    },
    {
      "bufferView": 0,
      "byteOffset": 1872156,
      "componentType": 5125,
      "count": 111801,
      "type": "SCALAR"
    },
    {
      "bufferView": 2,
      "byteOffset": 2454456,
      "componentType": 5126,
      "count": 38178,
      "max": [
        2.3318769931793213,
        2.3318769931793213,
        2.2899889945983887
      ],
      "min": [
        -2.3318769931793213,
        -2.3318769931793213,
        0.5363799929618835
      ],
      "type": "VEC3"
    },
    {
      "bufferView": 2,
      "byteOffset": 2912592,
      "componentType": 5126,
      "count": 38178,
      "max": [
        1.0,
        1.0,
        1.0
      ],
      "min": [
        -1.0,
        -1.0,
        -1.0
      ],
      "type": "VEC3"
    },
    {
      "bufferView": 1,
      "byteOffset": 818152,
      "componentType": 5126,
      "count": 38178,
      "max": [
        0.0,
        0.0
      ],
      "min": [
        0.0,
        0.0
      ],
      "type": "VEC2"
    },
    {
      "bufferView": 0,
      "byteOffset": 2319360,
      "componentType": 5125,
      "count": 222720,
      "type": "SCALAR"
    },
    {
      "bufferView": 2,
      "byteOffset": 3370728,
      "componentType": 5126,
      "count": 54675,
      "max": [
        2.3302619457244873,
        2.3268229961395264,
        0.5643680095672607
      ],
      "min": [
        -2.3155651092529297,
        -2.3268299102783203,
        0.4830879867076874
      ],
      "type": "VEC3"
    },
    {
      "bufferView": 2,
      "byteOffset": 4026828,
      "componentType": 5126,
      "count": 54675,
      "max": [
        1.0,
        0.9997468590736389,
        0.9999576807022095
      ],
      "min": [
        -1.0,
        -0.9997468590736389,
        -0.9999576807022095
      ],
      "type": "VEC3"
    },
    {
      "bufferView": 1,
      "byteOffset": 1123576,
      "componentType": 5126,
      "count": 54675,
      "max": [
        0.875,
        1.0
      ],
      "min": [
        0.125,
        0.0
      ],
      "type": "VEC2"
    },
    {
      "bufferView": 0,
      "byteOffset": 3210240,
      "componentType": 5125,
      "count": 311040,
      "type": "SCALAR"
    }
  ],
  "asset": {
    "extras": {
      "author": "necmettinturkan (https://sketchfab.com/necmettinturkan)",
      "license": "CC-BY-4.0 (http://creativecommons.org/licenses/by/4.0/)",
      "source": "https://sketchfab.com/3d-models/plastic-cap-dcd302be01064909977281d2a8ac3b2c",
      "title": "Plastic Cap"
    },
    "generator": "Sketchfab-14.42.0",
    "version": "2.0"
  },
  "bufferViews": [
    {
      "buffer": 0,
      "byteLength": 4454400,
      "name": "floatBufferViews",
      "target": 34963
    },
    {
      "buffer": 0,
      "byteLength": 1560976,
      "byteOffset": 4454400,
      "byteStride": 8,
      "name": "floatBufferViews",
      "target": 34962
    },
    {
      "buffer": 0,
      "byteLength": 4682928,
      "byteOffset": 6015376,
      "byteStride": 12,
      "name": "floatBufferViews",
      "target": 34962
    }
  ],
  "buffers": [
    {
      "byteLength": 10698304,
      "uri": "scene.bin"
    }
  ],
  "materials": [
    {
      "doubleSided": true,
      "name": "Material.001",
      "pbrMetallicRoughness": {
        "baseColorFactor": [
          0.0024565940723729517,
          0.124388574584026,
          0.4730297226483091,
          1.0
        ],
        "metallicFactor": 0.0,
        "roughnessFactor": 0.333361747728878
      }
    }
  ],
  "meshes": [
    {
      "name": "Object_0",
      "primitives": [
        {
          "attributes": {
            "NORMAL": 1,
            "POSITION": 0,
            "TEXCOORD_0": 2
          },
          "indices": 3,
          "material": 0,
          "mode": 4
        }
      ]
    },
    {
      "name": "Object_1",
      "primitives": [
        {
          "attributes": {
            "NORMAL": 5,
            "POSITION": 4,
            "TEXCOORD_0": 6
          },
          "indices": 7,
          "material": 0,
          "mode": 4
        }
      ]
    },
    {
      "name": "Object_2",
      "primitives": [
        {
          "attributes": {
            "NORMAL": 9,
            "POSITION": 8,
            "TEXCOORD_0": 10
          },
          "indices": 11,
          "material": 0,
          "mode": 4
        }
      ]
    },
    {
      "name": "Object_3",
      "primitives": [
        {
          "attributes": {
            "NORMAL": 13,
            "POSITION": 12,
            "TEXCOORD_0": 14
          },
          "indices": 15,
          "material": 0,
          "mode": 4
        }
      ]
    },
    {
      "name": "Object_4",
      "primitives": [
        {
          "attributes": {
            "NORMAL": 17,
            "POSITION": 16,
            "TEXCOORD_0": 18
          },
          "indices": 19,
          "material": 0,
          "mode": 4
        }
      ]
    }
  ],
  "nodes": [
    {
      "children": [
        1
      ],
      "matrix": [
        1.0,
        0.0,
        0.0,
        0.0,
        0.0,
        2.220446049250313e-16,
        -1.0,
        0.0,
        0.0,
        1.0,
        2.220446049250313e-16,
        0.0,
        0.0,
        0.0,
        0.0,
        1.0
      ],
      "name": "Sketchfab_model"
    },
    {
      "children": [
        2,
        3,
        4,
        5,
        6
      ],
      "name": "Plastik Cap.obj.cleaner.materialmerger.gles"
    },
    {
      "mesh": 0,
      "name": "Object_2"
    },
    {
      "mesh": 1,
      "name": "Object_3"
    },
    {
      "mesh": 2,
      "name": "Object_4"
    },
    {
      "mesh": 3,
      "name": "Object_5"
    },
    {
      "mesh": 4,
      "name": "Object_6"
    }
  ],
  "scene": 0,
  "scenes": [
    {
      "name": "Sketchfab_Scene",
      "nodes": [
        0
      ]
    }
  ]
}
